<?xml version="1.0" standalone="no"?>
<!DOCTYPE svg PUBLIC "-//W3C//DTD SVG 20010904//EN"
 "http://www.w3.org/TR/2001/REC-SVG-20010904/DTD/svg10.dtd">
<svg version="1.0" xmlns="http://www.w3.org/2000/svg"
 width="192.000000pt" height="192.000000pt" viewBox="0 0 192.000000 192.000000"
 preserveAspectRatio="xMidYMid meet">
<metadata>
Created by potrace 1.11, written by Peter Selinger 2001-2013
</metadata>
<g transform="translate(0.000000,192.000000) scale(0.100000,-0.100000)"
fill="#000000" stroke="none">
<path d="M219 1905 c-94 -35 -158 -95 -196 -187 l-22 -53 2 -715 c2 -707 2
-716 23 -761 31 -66 84 -121 151 -155 l58 -29 712 -2 c695 -3 714 -2 767 17
72 27 139 88 173 158 l28 57 0 725 c0 719 0 725 -21 771 -31 66 -84 121 -151
155 l-58 29 -715 2 c-577 1 -722 -1 -751 -12z"/>
</g>
</svg>
